<svg width="32" height="32" viewBox="0 0 32 32" fill="none" xmlns="http://www.w3.org/2000/svg">
<g id="User">
<path id="Combined Shape" fill-rule="evenodd" clip-rule="evenodd" d="M16 3C23.1797 3 29 8.8203 29 16C29 23.1797 23.1797 29 16 29C8.8203 29 3 23.1797 3 16C3 8.8203 8.8203 3 16 3ZM24 24C24 22 21 19 16 19C11 19 8 22 8 24C9.73492 26.2669 12.4028 27.4002 16.0036 27.4C19.6044 27.3998 22.2698 26.2665 24 24ZM16 17C18.2091 17 20 15.2091 20 13C20 10.7909 18.2091 9 16 9C13.7909 9 12 10.7909 12 13C12 15.2091 13.7909 17 16 17Z" fill="black"/>
</g>
</svg>
